<?xml version="1.0" standalone="no"?>
<!DOCTYPE svg PUBLIC "-//W3C//DTD SVG 20010904//EN"
 "http://www.w3.org/TR/2001/REC-SVG-20010904/DTD/svg10.dtd">
<svg version="1.0" xmlns="http://www.w3.org/2000/svg"
 width="764.000000pt" height="291.000000pt" viewBox="0 0 764.000000 291.000000"
 preserveAspectRatio="xMidYMid meet">

<g transform="translate(0.000000,291.000000) scale(0.100000,-0.100000)"
fill="#FFFFFF" stroke="none">
<path d="M1670 2207 c-55 -17 -143 -111 -170 -182 -27 -71 -33 -198 -11 -258
30 -87 127 -156 199 -142 135 25 234 165 236 329 0 93 -17 148 -62 198 -58 64
-113 80 -192 55z"/>
<path d="M1018 2196 c-43 -19 -75 -54 -98 -109 -72 -167 6 -386 158 -444 38
-14 51 -15 91 -4 175 47 215 331 69 496 -59 68 -149 93 -220 61z"/>
<path d="M2680 1525 l0 -515 115 0 115 0 0 30 0 30 41 -29 c118 -86 312 -52
428 74 71 79 94 144 94 270 0 135 -23 197 -107 281 -121 121 -299 148 -416 63
l-40 -29 0 170 0 170 -115 0 -115 0 0 -515z m480 30 c60 -31 92 -88 92 -164 0
-123 -64 -192 -177 -192 -82 0 -129 31 -160 104 -44 106 11 244 107 267 39 10
103 3 138 -15z"/>
<path d="M5047 2033 c-4 -3 -7 -80 -7 -171 l0 -164 -30 25 c-47 40 -123 61
-194 53 -73 -7 -169 -50 -223 -100 -120 -108 -152 -320 -73 -482 37 -75 91
-126 179 -167 107 -50 238 -42 311 20 l30 25 0 -31 0 -31 115 0 115 0 0 515 0
515 -108 0 c-60 0 -112 -3 -115 -7z m-73 -482 c45 -25 76 -93 76 -163 0 -136
-82 -209 -210 -186 -59 11 -90 34 -117 88 -44 86 -22 200 48 253 53 39 143 43
203 8z"/>
<path d="M5970 1870 l0 -170 -40 29 c-143 104 -387 30 -482 -146 -54 -100 -61
-241 -17 -359 31 -81 121 -172 204 -204 88 -34 192 -33 262 3 29 15 56 35 62
44 8 15 10 11 11 -19 l0 -38 115 0 115 0 0 515 0 515 -115 0 -115 0 0 -170z
m-115 -301 c100 -27 151 -148 111 -262 -27 -74 -80 -110 -162 -109 -110 1
-178 72 -178 187 1 91 41 152 121 180 47 17 58 18 108 4z"/>
<path d="M630 1757 c-44 -21 -67 -41 -91 -82 -35 -58 -33 -169 2 -245 45 -94
139 -170 214 -170 43 0 109 33 132 66 65 92 53 241 -27 342 -64 81 -163 120
-230 89z"/>
<path d="M2087 1756 c-50 -18 -108 -59 -134 -94 -106 -143 -93 -321 27 -382
51 -26 94 -25 156 4 181 84 240 340 104 447 -43 34 -102 44 -153 25z"/>
<path d="M3602 1493 c3 -266 4 -280 26 -328 85 -185 327 -225 455 -75 l37 44
0 -62 0 -62 115 0 115 0 -2 378 -3 377 -112 3 -113 3 0 -219 0 -219 -30 -44
c-42 -64 -88 -91 -151 -91 -42 0 -56 4 -78 26 l-26 26 -5 258 -5 257 -113 3
-113 3 3 -278z"/>
<path d="M6341 1703 c17 -37 91 -203 165 -369 l134 -301 -68 -149 -69 -149
110 -3 c61 -1 114 1 118 5 8 9 459 1017 459 1027 0 4 -51 5 -112 4 l-113 -3
-104 -239 c-73 -166 -108 -235 -114 -225 -5 8 -53 115 -106 239 l-99 225 -115
3 -116 3 30 -68z"/>
<path d="M1290 1549 c-61 -27 -88 -55 -188 -189 -47 -63 -124 -155 -171 -205
-49 -51 -100 -116 -118 -150 -75 -143 -59 -280 43 -377 72 -67 171 -75 364
-27 148 36 219 35 370 -5 211 -57 340 -20 412 117 18 33 23 59 23 122 0 114
-36 184 -159 313 -51 53 -126 146 -166 205 -83 122 -141 178 -207 201 -65 22
-148 20 -203 -5z"/>
</g>
</svg>
