<?xml version="1.0" standalone="no"?>
<!DOCTYPE svg PUBLIC "-//W3C//DTD SVG 20010904//EN"
 "http://www.w3.org/TR/2001/REC-SVG-20010904/DTD/svg10.dtd">
<svg version="1.0" xmlns="http://www.w3.org/2000/svg"
 width="480.000000pt" height="480.000000pt" viewBox="0 0 480.000000 480.000000"
 preserveAspectRatio="xMidYMid meet">

<g transform="translate(0.000000,480.000000) scale(0.100000,-0.100000)"
fill="#FFFFFF" stroke="none">
<path d="M2335 4094 c-490 -31 -925 -253 -1228 -626 -367 -453 -471 -1041
-282 -1605 76 -228 218 -456 395 -633 330 -332 730 -500 1190 -500 304 0 515
50 781 186 401 206 720 590 842 1014 56 193 62 241 62 480 0 195 -3 239 -23
327 -171 779 -807 1323 -1587 1355 -55 3 -122 3 -150 2z m280 -178 c514 -70
952 -389 1174 -856 201 -423 199 -903 -6 -1315 -211 -426 -607 -730 -1074
-825 -381 -78 -801 6 -1128 224 -342 229 -562 553 -653 963 -31 135 -33 475
-4 598 99 428 322 753 674 983 294 191 668 275 1017 228z"/>
<path d="M2224 3209 c-32 -16 -54 -62 -54 -116 0 -63 27 -113 74 -137 31 -15
41 -16 67 -6 16 7 36 25 44 41 35 66 5 183 -55 214 -33 17 -46 18 -76 4z"/>
<path d="M2518 3204 c-70 -37 -94 -172 -42 -233 75 -90 209 35 179 167 -9 41
-51 82 -84 82 -14 -1 -38 -8 -53 -16z"/>
<path d="M2044 2999 c-50 -18 -71 -86 -46 -149 30 -77 119 -107 161 -54 22 28
28 85 12 126 -21 55 -84 94 -127 77z"/>
<path d="M2704 2981 c-33 -20 -64 -82 -64 -130 0 -16 9 -40 21 -55 46 -59 151
-16 178 74 30 101 -47 164 -135 111z"/>
<path d="M2331 2885 c-16 -14 -50 -54 -74 -88 -25 -34 -59 -75 -77 -92 -76
-71 -93 -169 -40 -229 38 -43 84 -52 160 -31 71 19 135 19 216 -1 78 -20 131
-9 163 32 50 63 33 147 -48 237 -26 28 -66 78 -89 109 -24 32 -56 65 -72 73
-46 24 -103 19 -139 -10z"/>
<path d="M1340 1975 l0 -245 49 0 c28 0 51 5 53 11 3 8 14 7 35 -5 42 -21 88
-20 139 3 53 24 80 60 94 124 25 123 -54 227 -173 227 -24 0 -52 -7 -63 -15
-10 -8 -22 -15 -26 -15 -5 0 -8 36 -8 80 l0 80 -50 0 -50 0 0 -245z m239 -1
c40 -33 43 -89 7 -130 -49 -58 -146 -20 -146 56 0 87 76 128 139 74z"/>
<path d="M2470 2141 c0 -45 -3 -81 -7 -81 -5 0 -17 7 -27 15 -30 22 -104 18
-151 -8 -117 -66 -114 -261 5 -324 50 -27 103 -29 145 -7 19 10 31 11 33 5 2
-6 28 -11 58 -11 l54 0 -2 243 -3 242 -52 3 -53 3 0 -80z m-25 -166 c19 -18
25 -35 25 -67 -1 -49 -15 -73 -54 -88 -90 -34 -156 82 -87 151 38 37 82 39
116 4z"/>
<path d="M2917 2214 c-4 -4 -7 -40 -7 -81 l0 -74 -30 16 c-65 33 -165 5 -208
-59 -46 -68 -41 -173 11 -233 53 -61 130 -80 192 -47 19 10 31 11 33 5 2 -6
28 -11 58 -11 l54 0 -2 243 -3 242 -45 3 c-25 2 -49 0 -53 -4z m-35 -234 c55
-42 39 -138 -25 -159 -101 -34 -162 118 -67 166 36 18 64 16 92 -7z"/>
<path d="M1780 1951 c0 -127 2 -141 23 -172 43 -63 136 -75 191 -24 l26 24 0
-24 c0 -24 3 -25 55 -25 l55 0 0 181 0 180 -52 -3 -53 -3 -3 -111 c-2 -100 -5
-113 -25 -132 -31 -29 -68 -36 -92 -18 -18 13 -20 28 -23 140 l-4 126 -49 0
-49 0 0 -139z"/>
<path d="M3080 2085 c0 -4 34 -83 76 -177 l76 -170 -31 -67 c-17 -37 -31 -71
-31 -75 0 -4 23 -6 52 -4 l51 3 108 240 c60 132 108 243 109 248 0 4 -23 7
-50 7 l-51 0 -34 -77 c-19 -43 -43 -96 -53 -117 l-18 -39 -50 114 -50 114 -52
3 c-29 2 -52 0 -52 -3z"/>
</g>
</svg>
