<svg width="300" height="300" viewBox="0 0 16 16" fill="#4D869C" xmlns="http://www.w3.org/2000/svg">
<path d="M4 5.5C4 4.43913 4.42143 3.42172 5.17157 2.67157C5.92172 1.92143 6.93913 1.5 8 1.5C9.06087 1.5 10.0783 1.92143 10.8284 2.67157C11.5786 3.42172 12 4.43913 12 5.5C12 6.56087 11.5786 7.57828 10.8284 8.32843C10.0783 9.07857 9.06087 9.5 8 9.5C6.93913 9.5 5.92172 9.07857 5.17157 8.32843C4.42143 7.57828 4 6.56087 4 5.5ZM12.2437 2C11.2344 0.778125 9.70938 0 8 0C6.29063 0 4.76562 0.778125 3.75625 2H2C0.896875 2 0 2.89687 0 4V14C0 15.1031 0.896875 16 2 16H14C15.1031 16 16 15.1031 16 14V4C16 2.89687 15.1031 2 14 2H12.2437ZM9.25 7C9.25 6.66875 9.12187 6.36875 8.90938 6.14375L9.95938 3.69688C10.0688 3.44375 9.95 3.15 9.69687 3.04063C9.44375 2.93125 9.15 3.05 9.04062 3.30312L7.99062 5.75C7.30312 5.75313 6.75 6.3125 6.75 7C6.75 7.69063 7.30937 8.25 8 8.25C8.69063 8.25 9.25 7.69063 9.25 7Z" fill="#4D869C"/>
</svg>
